<?xml version="1.0" encoding="utf-8"?>
<!-- Generator: Adobe Illustrator 19.0.0, SVG Export Plug-In . SVG Version: 6.00 Build 0)  -->
<svg version="1.1" id="Layer_1" xmlns="http://www.w3.org/2000/svg" xmlns:xlink="http://www.w3.org/1999/xlink" x="0px" y="0px"
	 viewBox="-293 385 300 300" style="enable-background:new -293 385 300 300;" xml:space="preserve">
<style type="text/css">
	.st0{fill:none;stroke:#898989;stroke-width:7;stroke-miterlimit:10;}
	.st1{fill:#898989;stroke:#898989;stroke-miterlimit:10;}
	.st2{fill:none;}
	.st3{fill:none;stroke:#FCD735;stroke-width:7;stroke-miterlimit:10;}
	.st4{fill:#FFFFFF;}
	.st5{fill:none;stroke:#3D82C3;stroke-width:7;stroke-miterlimit:10;}
	.st6{fill:none;stroke:#439F47;stroke-width:7;stroke-miterlimit:10;}
	.st7{fill:#E53A34;}
	.st8{fill:#3D82C3;}
	.st9{fill:#FCD735;}
	.st10{fill:#439F47;}
	.st11{fill:none;stroke:#E53A34;stroke-width:7;stroke-miterlimit:10;}
</style>
<g id="XMLID_21_">
	
		<ellipse id="XMLID_37_" transform="matrix(6.083688e-003 1 -1 6.083688e-003 393.86 675.7365)" class="st0" cx="-143" cy="536" rx="35.4" ry="92.7"/>
	<path id="XMLID_35_" class="st1" d="M-156.7,541.3"/>
	<path id="XMLID_29_" class="st1" d="M-143,512.6c-12.4,0-22.5,10.1-22.5,22.5s10.1,22.5,22.5,22.5c2.1,0,3.8-1.7,3.8-3.8
		c0-1-0.4-1.8-1-2.5c-0.6-0.7-0.9-1.5-0.9-2.5c0-2.1,1.7-3.8,3.8-3.8h4.4c6.9,0,12.5-5.6,12.5-12.5
		C-120.5,521.6-130.6,512.6-143,512.6z M-156.8,535.1c-2.1,0-3.8-1.7-3.8-3.8s1.7-3.8,3.8-3.8c2.1,0,3.8,1.7,3.8,3.8
		S-154.7,535.1-156.8,535.1z M-149.3,525.1c-2.1,0-3.8-1.7-3.8-3.8s1.7-3.8,3.8-3.8c2.1,0,3.8,1.7,3.8,3.8S-147.2,525.1-149.3,525.1
		z M-136.8,525.1c-2.1,0-3.8-1.7-3.8-3.8s1.7-3.8,3.8-3.8c2.1,0,3.8,1.7,3.8,3.8S-134.7,525.1-136.8,525.1z M-129.3,535.1
		c-2.1,0-3.8-1.7-3.8-3.8s1.7-3.8,3.8-3.8c2.1,0,3.7,1.7,3.7,3.8S-127.2,535.1-129.3,535.1z"/>
	
		<ellipse id="XMLID_28_" transform="matrix(-0.706 0.7082 -0.7082 -0.706 135.6384 1015.6932)" class="st0" cx="-143" cy="536" rx="35.4" ry="92.2"/>
	
		<ellipse id="XMLID_27_" transform="matrix(0.706 0.7082 -0.7082 0.706 337.5566 258.8532)" class="st0" cx="-143" cy="536" rx="35.4" ry="92.2"/>
	<path id="XMLID_26_" class="st1" d="M-156.8,535.1c-2.1,0-3.8-1.7-3.8-3.8s1.7-3.8,3.8-3.8c2.1,0,3.8,1.7,3.8,3.8
		S-154.7,535.1-156.8,535.1z"/>
	<path id="XMLID_25_" class="st1" d="M-149.3,525.1c-2.1,0-3.8-1.7-3.8-3.8s1.7-3.8,3.8-3.8c2.1,0,3.8,1.7,3.8,3.8
		S-147.2,525.1-149.3,525.1z"/>
	<path id="XMLID_24_" class="st1" d="M-129.3,535.1c-2.1,0-3.8-1.7-3.8-3.8s1.7-3.8,3.8-3.8c2.1,0,3.7,1.7,3.7,3.8
		S-127.2,535.1-129.3,535.1z"/>
	<path id="XMLID_23_" class="st1" d="M-136.8,525.1c-2.1,0-3.8-1.7-3.8-3.8s1.7-3.8,3.8-3.8c2.1,0,3.8,1.7,3.8,3.8
		S-134.7,525.1-136.8,525.1z"/>
	
		<ellipse id="XMLID_22_" transform="matrix(1 -4.972118e-003 4.972118e-003 1 -2.6668 -0.7044)" class="st0" cx="-143" cy="536" rx="35.4" ry="92.2"/>
</g>
<path class="st2" d="M-155,523h24v24h-24V523z"/>
<g id="XMLID_36_">
	
		<ellipse id="XMLID_46_" transform="matrix(6.083688e-003 1 -1 6.083688e-003 392.8601 674.7426)" class="st3" cx="-143" cy="535" rx="35.4" ry="92.7"/>
	<path id="XMLID_42_" class="st4" d="M-156.7,540.3"/>
	<path id="XMLID_43_" class="st4" d="M-143,511.6c-12.4,0-22.5,10.1-22.5,22.5s10.1,22.5,22.5,22.5c2.1,0,3.8-1.7,3.8-3.8
		c0-1-0.4-1.8-1-2.5c-0.6-0.7-0.9-1.5-0.9-2.5c0-2.1,1.7-3.8,3.8-3.8h4.4c6.9,0,12.5-5.6,12.5-12.5
		C-120.5,520.6-130.6,511.6-143,511.6z M-156.8,534.1c-2.1,0-3.8-1.7-3.8-3.8s1.7-3.8,3.8-3.8c2.1,0,3.8,1.7,3.8,3.8
		S-154.7,534.1-156.8,534.1z M-149.3,524.1c-2.1,0-3.8-1.7-3.8-3.8s1.7-3.8,3.8-3.8c2.1,0,3.8,1.7,3.8,3.8S-147.2,524.1-149.3,524.1
		z M-136.8,524.1c-2.1,0-3.8-1.7-3.8-3.8s1.7-3.8,3.8-3.8c2.1,0,3.8,1.7,3.8,3.8S-134.7,524.1-136.8,524.1z M-129.3,534.1
		c-2.1,0-3.8-1.7-3.8-3.8s1.7-3.8,3.8-3.8c2.1,0,3.7,1.7,3.7,3.8S-127.2,534.1-129.3,534.1z"/>
	
		<ellipse id="XMLID_47_" transform="matrix(-0.706 0.7082 -0.7082 -0.706 134.9302 1013.9872)" class="st5" cx="-143" cy="535" rx="35.4" ry="92.2"/>
	
		<ellipse id="XMLID_48_" transform="matrix(0.706 0.7082 -0.7082 0.706 336.8484 258.5592)" class="st6" cx="-143" cy="535" rx="35.4" ry="92.2"/>
	<path id="XMLID_4_" class="st7" d="M-156.8,534.1c-2.1,0-3.8-1.7-3.8-3.8s1.7-3.8,3.8-3.8c2.1,0,3.8,1.7,3.8,3.8
		S-154.7,534.1-156.8,534.1z"/>
	<path id="XMLID_3_" class="st8" d="M-149.3,524.1c-2.1,0-3.8-1.7-3.8-3.8s1.7-3.8,3.8-3.8c2.1,0,3.8,1.7,3.8,3.8
		S-147.2,524.1-149.3,524.1z"/>
	<path id="XMLID_2_" class="st9" d="M-129.3,534.1c-2.1,0-3.8-1.7-3.8-3.8s1.7-3.8,3.8-3.8c2.1,0,3.7,1.7,3.7,3.8
		S-127.2,534.1-129.3,534.1z"/>
	<path id="XMLID_1_" class="st10" d="M-136.8,524.1c-2.1,0-3.8-1.7-3.8-3.8s1.7-3.8,3.8-3.8c2.1,0,3.8,1.7,3.8,3.8
		S-134.7,524.1-136.8,524.1z"/>
	
		<ellipse id="XMLID_20_" transform="matrix(1 -4.972118e-003 4.972118e-003 1 -2.6619 -0.7044)" class="st11" cx="-143" cy="535" rx="35.4" ry="92.2"/>
</g>
</svg>
